<!DOCTYPE svg PUBLIC "-//W3C//DTD SVG 1.1//EN" "http://www.w3.org/Graphics/SVG/1.1/DTD/svg11.dtd">

<!-- Uploaded to: SVG Repo, www.svgrepo.com, Transformed by: SVG Repo Mixer Tools -->
<svg width="800px" height="800px" viewBox="0 0 24 24" fill="#FFFFFF" xmlns="http://www.w3.org/2000/svg">

<g id="SVGRepo_bgCarrier" stroke-width="0"/>

<g id="SVGRepo_tracerCarrier" stroke-linecap="round" stroke-linejoin="round"/>

<g id="SVGRepo_iconCarrier"> <path d="M15.3909 5.21L16.8009 8.03C16.9909 8.42 17.5009 8.79 17.9309 8.87L20.4809 9.29C22.1109 9.56 22.4909 10.74 21.3209 11.92L19.3309 13.91C19.0009 14.24 18.8109 14.89 18.9209 15.36L19.4909 17.82C19.9409 19.76 18.9009 20.52 17.1909 19.5L14.8009 18.08C14.3709 17.82 13.6509 17.82 13.2209 18.08L10.8309 19.5C9.12091 20.51 8.08093 19.76 8.53093 17.82L9.10093 15.36C9.21093 14.9 9.02093 14.25 8.69093 13.91L6.70094 11.92C5.53094 10.75 5.91094 9.57 7.54094 9.29L10.0909 8.87C10.5209 8.8 11.0309 8.42 11.2209 8.03L12.6309 5.21C13.3809 3.68 14.6209 3.68 15.3909 5.21Z" fill="#ffffff"/>   </g>

</svg>